<mxfile host="app.diagrams.net" agent="Mozilla/5.0 (Windows NT 10.0; Win64; x64; rv:128.0) Gecko/20100101 Firefox/128.0" version="24.7.12">
  <diagram name="Page-1" id="uX5JJeyNx6N4E_SjzoJR">
    <mxGraphModel dx="1658" dy="862" grid="0" gridSize="10" guides="1" tooltips="1" connect="1" arrows="1" fold="1" page="1" pageScale="1" pageWidth="850" pageHeight="1100" math="0" shadow="0">
      <root>
        <mxCell id="0" />
        <mxCell id="1" parent="0" />
        <mxCell id="s9lpPQXP-WuD-LQ4gcIW-1" value="&lt;b&gt;contador = contador + 1&lt;/b&gt;" style="rounded=0;whiteSpace=wrap;html=1;" vertex="1" parent="1">
          <mxGeometry x="356.75" y="717" width="152.5" height="60" as="geometry" />
        </mxCell>
        <mxCell id="s9lpPQXP-WuD-LQ4gcIW-2" value="&lt;div&gt;&lt;b&gt;contador = 1&lt;/b&gt;&lt;/div&gt;&lt;div&gt;&lt;b&gt;suma = 0&lt;br&gt;&lt;/b&gt;&lt;/div&gt;" style="rounded=0;whiteSpace=wrap;html=1;" vertex="1" parent="1">
          <mxGeometry x="365" y="105" width="120" height="60" as="geometry" />
        </mxCell>
        <mxCell id="s9lpPQXP-WuD-LQ4gcIW-19" style="edgeStyle=orthogonalEdgeStyle;rounded=0;orthogonalLoop=1;jettySize=auto;html=1;exitX=0.5;exitY=1;exitDx=0;exitDy=0;entryX=0.5;entryY=0;entryDx=0;entryDy=0;" edge="1" parent="1" source="s9lpPQXP-WuD-LQ4gcIW-3" target="s9lpPQXP-WuD-LQ4gcIW-1">
          <mxGeometry relative="1" as="geometry" />
        </mxCell>
        <mxCell id="s9lpPQXP-WuD-LQ4gcIW-3" value="&lt;b&gt;suma = suma + num&lt;/b&gt;" style="rounded=0;whiteSpace=wrap;html=1;" vertex="1" parent="1">
          <mxGeometry x="362.5" y="617" width="141" height="60" as="geometry" />
        </mxCell>
        <mxCell id="s9lpPQXP-WuD-LQ4gcIW-18" style="edgeStyle=orthogonalEdgeStyle;rounded=0;orthogonalLoop=1;jettySize=auto;html=1;" edge="1" parent="1" source="s9lpPQXP-WuD-LQ4gcIW-4" target="s9lpPQXP-WuD-LQ4gcIW-3">
          <mxGeometry relative="1" as="geometry" />
        </mxCell>
        <mxCell id="s9lpPQXP-WuD-LQ4gcIW-4" value="&lt;b&gt;num&lt;/b&gt;" style="shape=parallelogram;html=1;strokeWidth=2;perimeter=parallelogramPerimeter;whiteSpace=wrap;rounded=1;arcSize=12;size=0.23;" vertex="1" parent="1">
          <mxGeometry x="383" y="510" width="100" height="60" as="geometry" />
        </mxCell>
        <mxCell id="s9lpPQXP-WuD-LQ4gcIW-5" value="&lt;div&gt;&lt;b&gt;&amp;nbsp;&amp;nbsp;&amp;nbsp;&amp;nbsp; &quot;La suma total de los 100 numeros ingresados es &quot;&lt;/b&gt;&lt;/div&gt;&lt;div&gt;&lt;b&gt;suma&lt;br&gt;&lt;/b&gt;&lt;/div&gt;" style="strokeWidth=2;html=1;shape=mxgraph.flowchart.display;whiteSpace=wrap;" vertex="1" parent="1">
          <mxGeometry x="346.25" y="875" width="191" height="69" as="geometry" />
        </mxCell>
        <mxCell id="s9lpPQXP-WuD-LQ4gcIW-6" value="&lt;div&gt;&lt;b&gt;&quot;Ingrese un numero&quot;&lt;/b&gt;&lt;/div&gt;&lt;div&gt;&lt;b&gt;contador&lt;br&gt;&lt;/b&gt;&lt;/div&gt;" style="strokeWidth=2;html=1;shape=mxgraph.flowchart.display;whiteSpace=wrap;" vertex="1" parent="1">
          <mxGeometry x="367" y="406" width="116" height="60" as="geometry" />
        </mxCell>
        <mxCell id="s9lpPQXP-WuD-LQ4gcIW-12" style="edgeStyle=orthogonalEdgeStyle;rounded=0;orthogonalLoop=1;jettySize=auto;html=1;" edge="1" parent="1" source="s9lpPQXP-WuD-LQ4gcIW-7" target="s9lpPQXP-WuD-LQ4gcIW-2">
          <mxGeometry relative="1" as="geometry" />
        </mxCell>
        <mxCell id="s9lpPQXP-WuD-LQ4gcIW-7" value="&lt;b&gt;Inicio&lt;/b&gt;" style="strokeWidth=2;html=1;shape=mxgraph.flowchart.terminator;whiteSpace=wrap;" vertex="1" parent="1">
          <mxGeometry x="375" y="13" width="100" height="60" as="geometry" />
        </mxCell>
        <mxCell id="s9lpPQXP-WuD-LQ4gcIW-8" value="&lt;b&gt;Fin&lt;/b&gt;" style="strokeWidth=2;html=1;shape=mxgraph.flowchart.terminator;whiteSpace=wrap;" vertex="1" parent="1">
          <mxGeometry x="391.75" y="974" width="100" height="60" as="geometry" />
        </mxCell>
        <mxCell id="s9lpPQXP-WuD-LQ4gcIW-14" style="edgeStyle=orthogonalEdgeStyle;rounded=0;orthogonalLoop=1;jettySize=auto;html=1;exitX=0.5;exitY=1;exitDx=0;exitDy=0;exitPerimeter=0;" edge="1" parent="1" source="s9lpPQXP-WuD-LQ4gcIW-9" target="s9lpPQXP-WuD-LQ4gcIW-10">
          <mxGeometry relative="1" as="geometry" />
        </mxCell>
        <mxCell id="s9lpPQXP-WuD-LQ4gcIW-15" style="edgeStyle=orthogonalEdgeStyle;rounded=0;orthogonalLoop=1;jettySize=auto;html=1;exitX=1;exitY=0.5;exitDx=0;exitDy=0;exitPerimeter=0;" edge="1" parent="1" source="s9lpPQXP-WuD-LQ4gcIW-9" target="s9lpPQXP-WuD-LQ4gcIW-11">
          <mxGeometry relative="1" as="geometry" />
        </mxCell>
        <mxCell id="s9lpPQXP-WuD-LQ4gcIW-9" value="&lt;b&gt;contador &amp;lt;= 100&lt;/b&gt;" style="strokeWidth=2;html=1;shape=mxgraph.flowchart.decision;whiteSpace=wrap;" vertex="1" parent="1">
          <mxGeometry x="368" y="208" width="115" height="109" as="geometry" />
        </mxCell>
        <mxCell id="s9lpPQXP-WuD-LQ4gcIW-16" style="edgeStyle=orthogonalEdgeStyle;rounded=0;orthogonalLoop=1;jettySize=auto;html=1;" edge="1" parent="1" source="s9lpPQXP-WuD-LQ4gcIW-10" target="s9lpPQXP-WuD-LQ4gcIW-6">
          <mxGeometry relative="1" as="geometry" />
        </mxCell>
        <mxCell id="s9lpPQXP-WuD-LQ4gcIW-10" value="&lt;b&gt;Verdadero&lt;/b&gt;" style="text;html=1;align=center;verticalAlign=middle;resizable=0;points=[];autosize=1;strokeColor=none;fillColor=none;" vertex="1" parent="1">
          <mxGeometry x="384" y="348" width="83" height="26" as="geometry" />
        </mxCell>
        <mxCell id="s9lpPQXP-WuD-LQ4gcIW-11" value="&lt;b&gt;Falso&lt;/b&gt;" style="text;html=1;align=center;verticalAlign=middle;resizable=0;points=[];autosize=1;strokeColor=none;fillColor=none;" vertex="1" parent="1">
          <mxGeometry x="661" y="249.5" width="50" height="26" as="geometry" />
        </mxCell>
        <mxCell id="s9lpPQXP-WuD-LQ4gcIW-13" style="edgeStyle=orthogonalEdgeStyle;rounded=0;orthogonalLoop=1;jettySize=auto;html=1;exitX=0.5;exitY=1;exitDx=0;exitDy=0;entryX=0.5;entryY=0;entryDx=0;entryDy=0;entryPerimeter=0;" edge="1" parent="1" source="s9lpPQXP-WuD-LQ4gcIW-2" target="s9lpPQXP-WuD-LQ4gcIW-9">
          <mxGeometry relative="1" as="geometry" />
        </mxCell>
        <mxCell id="s9lpPQXP-WuD-LQ4gcIW-17" style="edgeStyle=orthogonalEdgeStyle;rounded=0;orthogonalLoop=1;jettySize=auto;html=1;exitX=0.5;exitY=1;exitDx=0;exitDy=0;exitPerimeter=0;entryX=0.42;entryY=0;entryDx=0;entryDy=0;entryPerimeter=0;" edge="1" parent="1" source="s9lpPQXP-WuD-LQ4gcIW-6" target="s9lpPQXP-WuD-LQ4gcIW-4">
          <mxGeometry relative="1" as="geometry" />
        </mxCell>
        <mxCell id="s9lpPQXP-WuD-LQ4gcIW-20" style="edgeStyle=orthogonalEdgeStyle;rounded=0;orthogonalLoop=1;jettySize=auto;html=1;entryX=0.5;entryY=0;entryDx=0;entryDy=0;entryPerimeter=0;" edge="1" parent="1" source="s9lpPQXP-WuD-LQ4gcIW-5" target="s9lpPQXP-WuD-LQ4gcIW-8">
          <mxGeometry relative="1" as="geometry" />
        </mxCell>
        <mxCell id="s9lpPQXP-WuD-LQ4gcIW-22" style="edgeStyle=orthogonalEdgeStyle;rounded=0;orthogonalLoop=1;jettySize=auto;html=1;entryX=0.554;entryY=0;entryDx=0;entryDy=0;entryPerimeter=0;" edge="1" parent="1" source="s9lpPQXP-WuD-LQ4gcIW-11" target="s9lpPQXP-WuD-LQ4gcIW-5">
          <mxGeometry relative="1" as="geometry">
            <Array as="points">
              <mxPoint x="684" y="836" />
              <mxPoint x="452" y="836" />
            </Array>
          </mxGeometry>
        </mxCell>
        <mxCell id="s9lpPQXP-WuD-LQ4gcIW-23" style="edgeStyle=orthogonalEdgeStyle;rounded=0;orthogonalLoop=1;jettySize=auto;html=1;entryX=0.5;entryY=0;entryDx=0;entryDy=0;entryPerimeter=0;" edge="1" parent="1" source="s9lpPQXP-WuD-LQ4gcIW-1" target="s9lpPQXP-WuD-LQ4gcIW-9">
          <mxGeometry relative="1" as="geometry">
            <Array as="points">
              <mxPoint x="433" y="804" />
              <mxPoint x="188" y="804" />
              <mxPoint x="188" y="203" />
              <mxPoint x="426" y="203" />
            </Array>
          </mxGeometry>
        </mxCell>
      </root>
    </mxGraphModel>
  </diagram>
</mxfile>
